<?xml version="1.0" encoding="UTF-8"?>
<svg width="52px" height="52px" viewBox="0 0 52 52" version="1.1" xmlns="http://www.w3.org/2000/svg" xmlns:xlink="http://www.w3.org/1999/xlink">
    <!-- Generator: Sketch 45.2 (43514) - http://www.bohemiancoding.com/sketch -->
    <title>Icon-Database</title>
    <desc>Created with Sketch.</desc>
    <defs></defs>
    <g id="Symbols" stroke="none" stroke-width="1" fill="none" fill-rule="evenodd">
        <g id="Icon-Database" stroke="#57A1C6">
            <path d="M44.0868812,7.53623188 C44.0868812,9.40898551 35.9892,10.9275362 25.9999246,10.9275362 C16.0106493,10.9275362 7.91296812,9.40898551 7.91296812,7.53623188 C7.91296812,5.66347826 16.0106493,4.14492754 25.9999246,4.14492754 C35.9892,4.14492754 44.0868812,5.66347826 44.0868812,7.53623188 Z" id="Stroke-3"></path>
            <path d="M44.0868812,45.2173913 C44.0868812,47.0901449 35.9892,48.6086957 25.9999246,48.6086957 C16.0106493,48.6086957 7.91296812,47.0901449 7.91296812,45.2173913" id="Stroke-4"></path>
            <path d="M44.0868812,7.53623188 L44.0868812,45.2173913" id="Stroke-5"></path>
            <path d="M7.91296812,7.53623188 L7.91296812,45.2173913" id="Stroke-6"></path>
            <path d="M44.0868812,19.5942029 C44.0868812,21.4669565 35.9892,22.9855072 25.9999246,22.9855072 C16.0106493,22.9855072 7.91296812,21.4669565 7.91296812,19.5942029" id="Stroke-7"></path>
            <path d="M44.0868812,33.1594203 C44.0868812,35.0321739 35.9892,36.5507246 25.9999246,36.5507246 C16.0106493,36.5507246 7.91296812,35.0321739 7.91296812,33.1594203" id="Stroke-8"></path>
        </g>
    </g>
</svg>